<?xml version="1.0" encoding="utf-8"?>
<!-- Generator: Adobe Illustrator 17.1.0, SVG Export Plug-In . SVG Version: 6.00 Build 0)  -->
<!DOCTYPE svg PUBLIC "-//W3C//DTD SVG 1.1//EN" "http://www.w3.org/Graphics/SVG/1.1/DTD/svg11.dtd">
<svg version="1.1" id="Layer_1" xmlns="http://www.w3.org/2000/svg" xmlns:xlink="http://www.w3.org/1999/xlink" x="0px" y="0px"
	 viewBox="0 0 60 60" enable-background="new 0 0 60 60" xml:space="preserve">
<path fill="#DEF0E9" d="M33.8,35.7 M21.6,14.3 M26.2,31.7c-3.3,0-5.9,2.7-5.9,5.9c0,1.9,0.9,3.6,2.3,4.7c-0.8-1-1.2-2.3-1.2-3.6
	c0-3.3,2.7-5.9,5.9-5.9c1.4,0,2.6,0.5,3.6,1.2C29.8,32.6,28.1,31.7,26.2,31.7z M19.9,3.6c0,0.3,0.1,0.6,0.2,0.9
	c0,0.2,0.1,0.3,0.2,0.5c0.1,0.2,0.1,0.3,0.2,0.5c0.1,0.1,0.1,0.3,0.2,0.4l0.2,0.4C21,6.5,21.2,6.8,21.4,7c0.2,0.3,0.4,0.5,0.5,0.7
	C22,7.9,22.1,8,22.2,8.1c0.1,0.1,0.2,0.2,0.2,0.3c0.1,0.1,0.1,0.2,0.2,0.3c0.1,0.1,0.1,0.2,0.2,0.3c0,0.1,0.1,0.2,0.1,0.3
	C23,9.5,23,9.6,23,9.7c0.1,0.2,0.1,0.3,0.1,0.5c0.1,0.3,0.1,0.4,0.1,0.4s0-0.2,0.1-0.4c0-0.1,0-0.3,0-0.5c0-0.1,0-0.2,0-0.3
	c0-0.1,0-0.2-0.1-0.4c0-0.1-0.1-0.3-0.1-0.4c0-0.1-0.1-0.3-0.1-0.4c-0.1-0.1-0.1-0.3-0.2-0.4c-0.1-0.1-0.1-0.3-0.2-0.4
	c-0.2-0.3-0.3-0.5-0.5-0.8c-0.2-0.3-0.3-0.5-0.5-0.8l-0.2-0.4c-0.1-0.1-0.1-0.3-0.2-0.4c-0.1-0.3-0.3-0.5-0.4-0.8
	c-0.1-0.3-0.2-0.5-0.3-0.8c-0.1-0.3-0.2-0.5-0.2-0.7c-0.1-0.2-0.1-0.4-0.2-0.6c0-0.2-0.1-0.4-0.1-0.5c-0.1-0.3-0.1-0.4-0.1-0.4
	s0,0.2-0.1,0.4c0,0.1,0,0.3-0.1,0.5c0,0.2,0,0.4,0,0.7C19.8,3,19.8,3.3,19.9,3.6z M17.3,3.6c0,0.3,0.1,0.6,0.2,0.9
	c0,0.2,0.1,0.3,0.2,0.5c0.1,0.2,0.1,0.3,0.2,0.5C17.9,5.5,18,5.6,18,5.8l0.2,0.4c0.2,0.3,0.4,0.6,0.5,0.8c0.2,0.3,0.4,0.5,0.5,0.7
	c0.1,0.1,0.2,0.2,0.3,0.3c0.1,0.1,0.2,0.2,0.2,0.3C19.9,8.6,20,8.7,20,8.8c0.1,0.1,0.1,0.2,0.2,0.3c0,0.1,0.1,0.2,0.1,0.3
	c0,0.1,0.1,0.2,0.1,0.3c0.1,0.2,0.1,0.3,0.1,0.5c0.1,0.3,0.1,0.4,0.1,0.4s0-0.2,0.1-0.4c0-0.1,0-0.3,0-0.5c0-0.1,0-0.2,0-0.3
	c0-0.1,0-0.2-0.1-0.4c0-0.1-0.1-0.3-0.1-0.4c0-0.1-0.1-0.3-0.1-0.4c-0.1-0.1-0.1-0.3-0.2-0.4c-0.1-0.1-0.1-0.3-0.2-0.4
	c-0.2-0.3-0.3-0.5-0.5-0.8C19.3,6.3,19.2,6,19,5.8l-0.2-0.4c-0.1-0.1-0.1-0.3-0.2-0.4c-0.1-0.3-0.3-0.5-0.4-0.8
	c-0.1-0.3-0.2-0.5-0.3-0.8c-0.1-0.3-0.2-0.5-0.2-0.7c-0.1-0.2-0.1-0.4-0.2-0.6c0-0.2-0.1-0.4-0.1-0.5c-0.1-0.3-0.1-0.4-0.1-0.4
	s0,0.2-0.1,0.4c0,0.1,0,0.3-0.1,0.5c0,0.2,0,0.4,0,0.7C17.2,3,17.2,3.3,17.3,3.6z M49.9,46.3C45,53.2,37.2,57.2,28.7,57.1
	c-6.5-0.1-12.6-2.7-17.2-7.3c-4.7-4.6-7.3-10.6-7.6-17.1c-0.3-7,2.2-13.6,7.1-18.6c2.3-2.4,5-4.3,7.9-5.6l-0.2-0.2l-0.5-0.7
	c-0.1-0.1-0.2-0.2-0.3-0.4c-3,1.4-5.7,3.3-8.1,5.8C4.7,18.3,2,25.3,2.3,32.7c0.3,6.9,3.1,13.3,8.1,18.2c4.9,4.9,11.4,7.6,18.3,7.7
	c0.2,0,0.4,0,0.6,0c8.3,0,16-3.7,21.1-10.1c0,0,0,0,0,0c0.6-0.7,1.2-1.5,1.7-2.3h0c2.4-3,4.8-3.3,6.1-3.4
	C53.4,41.3,51,44.8,49.9,46.3z M54.4,36.8c-1.7,3.1-4.2,4.8-7.2,5.1c-0.1,0.8-0.2,1.4-0.5,1.9L46.5,44H46c-0.3,0-0.8,0.1-1.4,0
	c-2.8-0.3-8.4-0.7-13.6,1.4c-1.4,0.8-2.9,1.3-4.6,1.3c-5,0-9.1-4.1-9.1-9.1c0-0.1,0-0.2,0-0.3l0,0l-0.2-24.9
	c3.2-1.7,6.8-1.4,7.8-0.1v15.1c0,0.1-1,0.2-1,0.5V13.6c-1-0.8-3-0.8-5,0v12.1v6.6V36l0,0.4c-0.1,0.4-0.1,0.8-0.1,1.2
	c0,4.1,3.4,7.5,7.5,7.5c0.9,0,1.7-0.2,2.5-0.4c0.4-0.2,0.9-0.4,1.3-0.6c2.3-1.4,3.8-4,3.6-6.9c-0.2-3.7-2.9-6.7-6.5-7
	c-3.3-0.3-6.4,1.6-7.4,4.4v-2.8v-6l-0.2-11.9c0,0,0.7-0.4,1.5-0.4l0.2,0C21,13.7,21,14.1,21,14.5v16.2c2-0.7,1.4-1.2,2.3-1.6
	c0.8-0.3,1.6-0.5,2.2-0.6c0,0,0.6-0.1,1-0.1c4,0,7.3,1.4,8.5,5C35.5,34,37.6,35,46,35h0.5l0.2,1.7c0.2,0.6,0.4,2.1,0.5,2.9
	c2.4-0.2,4.4-1.4,5.8-3.9c1.2-2.2,1.7-4.7,1.4-7.3C52.9,15.7,42,6.2,29.2,6.2c-2,0-4,0.3-5.9,0.7l0,0c-0.2-0.3-0.3-0.6-0.5-0.8
	l0-0.1c-0.1-0.2-0.2-0.3-0.3-0.5c2.2-0.6,4.5-0.8,6.8-0.8c13.6,0,25.1,10.2,26.8,23.6C56.4,31.3,55.8,34.3,54.4,36.8z M45.5,39
	c-5.3-0.1-8.3-1-9.9-1.9c0,0.2,0,0.3,0,0.5c0,2-0.6,3.8-1.7,5.3c4.4-1,8.6-0.6,10.9-0.4c0.3,0,0.5,0.1,0.8,0.1
	C45.7,41.8,45.8,40.3,45.5,39z"/>
</svg>
